<?xml version="1.0" encoding="UTF-8"?>
<svg width="130px" height="39px" viewBox="0 0 130 39" version="1.1" xmlns="http://www.w3.org/2000/svg" xmlns:xlink="http://www.w3.org/1999/xlink">
    <title>Zemoga Logo</title>
    <defs></defs>
    <g id="Pages" stroke="none" stroke-width="1" fill="none" fill-rule="evenodd">
        <g id="01-Login" transform="translate(-655.000000, -84.000000)">
            <g id="Group-2" transform="translate(348.000000, 44.000000)">
                <g id="Group" transform="translate(307.000000, 40.000000)">
                    <path d="M127.933399,11.1562146 C128.229345,11.1562146 128.520546,11.2324975 128.802851,11.3856591 C129.086343,11.5394167 129.308747,11.7587298 129.467098,12.0435985 C129.624264,12.3296591 129.70255,12.626447 129.70255,12.93575 C129.70255,13.2426692 129.624264,13.5382652 129.470657,13.82075 C129.313491,14.1038308 129.094646,14.3237399 128.814713,14.4798813 C128.533001,14.6366187 128.238834,14.7140934 127.933399,14.7140934 C127.624999,14.7140934 127.334391,14.6366187 127.0509,14.4798813 C126.770967,14.3237399 126.554494,14.1038308 126.394956,13.82075 C126.240162,13.5382652 126.160097,13.2426692 126.160097,12.93575 C126.160097,12.626447 126.240162,12.3296591 126.397328,12.0435985 C126.557459,11.7587298 126.77927,11.5394167 127.063354,11.3856591 C127.344473,11.2324975 127.633895,11.1562146 127.933399,11.1562146 L127.933399,11.1562146 Z M127.933399,11.4506187 C127.6849,11.4506187 127.442924,11.5149823 127.206879,11.6419217 C126.971427,11.770649 126.78698,11.9542045 126.654724,12.1925884 C126.518909,12.4309722 126.454856,12.6782955 126.454856,12.93575 C126.454856,13.1926086 126.518909,13.4381439 126.649979,13.673548 C126.782235,13.9083561 126.963717,14.0919116 127.196797,14.2224268 C127.432842,14.3541338 127.676004,14.4196894 127.933399,14.4196894 C128.189016,14.4196894 128.432771,14.3541338 128.66585,14.2224268 C128.900116,14.0919116 129.082191,13.9083561 129.213854,13.673548 C129.344331,13.4381439 129.408977,13.1926086 129.408977,12.93575 C129.408977,12.6782955 129.341959,12.4309722 129.210889,12.1925884 C129.078632,11.9542045 128.894778,11.770649 128.658733,11.6419217 C128.422095,11.5149823 128.178934,11.4506187 127.933399,11.4506187 L127.933399,11.4506187 Z M127.211624,13.8642551 L127.211624,11.9494369 L127.866382,11.9494369 C128.089972,11.9494369 128.251882,11.9667197 128.351519,12.0018813 C128.451749,12.0376389 128.533001,12.0990227 128.592902,12.1866288 C128.652803,12.2754268 128.68305,12.3683965 128.68305,12.4679217 C128.68305,12.6073763 128.630859,12.729548 128.533001,12.832649 C128.432771,12.936346 128.299328,12.99475 128.135046,13.0072652 C128.20147,13.0358712 128.257813,13.0692449 128.298142,13.1091742 C128.375242,13.1848611 128.467169,13.3112045 128.580447,13.4888005 L128.811748,13.8642551 L128.436329,13.8642551 L128.268488,13.5615076 C128.135046,13.3249116 128.027106,13.1759217 127.944668,13.1163258 C127.890105,13.0722247 127.807667,13.0495783 127.698541,13.0495783 L127.520024,13.0495783 L127.520024,13.8642551 L127.211624,13.8642551 L127.211624,13.8642551 Z M127.520024,12.7867601 L127.891884,12.7867601 C128.069807,12.7867601 128.19376,12.759346 128.255441,12.7057096 C128.321865,12.6520732 128.353891,12.581154 128.353891,12.493548 C128.353891,12.4375278 128.337878,12.3868712 128.306445,12.3415783 C128.275605,12.2968813 128.231717,12.2635076 128.17834,12.2408611 C128.120812,12.2194066 128.018803,12.2074874 127.868161,12.2074874 L127.520024,12.2074874 L127.520024,12.7867601 L127.520024,12.7867601 Z" id="Fill-1" fill="#212121"></path>
                    <path d="M106.708925,20.1522247 L106.708925,26.9980126 C106.708925,27.5498712 106.892186,27.8162652 107.25515,27.8162652 C107.629382,27.8162652 108.215343,27.5248409 109.005322,26.9408005 L109.005322,28.8854167 C108.301339,29.3508611 107.731391,29.6601641 107.300817,29.8210732 C106.870242,29.987346 106.420689,30.0731641 105.952751,30.0731641 C104.618326,30.0731641 103.831905,29.5433561 103.588743,28.4867197 C102.235933,29.5433561 100.790009,30.0731641 99.2569029,30.0731641 C98.1347997,30.0731641 97.1983299,29.7042652 96.4522381,28.9652753 C95.7031809,28.2244975 95.3295419,27.3013561 95.3295419,26.1839318 C95.3295419,25.1690126 95.6936916,24.2649419 96.4225842,23.4663561 C97.1508837,22.67075 98.1810598,22.036053 99.5214156,21.5741843 L103.588743,20.1790429 L103.588743,19.3119217 C103.588743,17.360154 102.627364,16.3827803 100.680883,16.3827803 C98.945537,16.3827803 97.2528931,17.2826793 95.6023576,19.0771136 L95.6023576,15.5979015 C96.8412971,14.144952 98.616972,13.4137096 100.936499,13.4137096 C102.673031,13.4137096 104.067357,13.8696187 105.122442,14.779053 C105.467613,15.0692854 105.782538,15.4638106 106.063063,15.94475 C106.338845,16.4328409 106.517954,16.9125884 106.59802,17.3959116 C106.669189,17.8798308 106.708925,18.8011843 106.708925,20.1522247 L106.708925,20.1522247 Z M103.588743,26.6320934 L103.588743,21.8799116 L101.463745,22.6975682 C100.383158,23.1314268 99.6174942,23.5652854 99.1756512,23.998548 C98.7296567,24.4353864 98.5060664,24.97175 98.5060664,25.6279015 C98.5060664,26.2894167 98.7177952,26.829952 99.1371012,27.2477197 C99.5605587,27.6684672 100.110342,27.8716894 100.785264,27.8716894 C101.793497,27.8716894 102.729966,27.4598813 103.588743,26.6320934 L103.588743,26.6320934 Z" id="Fill-7" fill="#212121"></path>
                    <polygon id="Fill-8" fill="#10C64E" points="112.985467 0.108315657 123.500143 10.132952 123.528018 14.9632045 114.103419 5.97851768 107.969808 11.9428813 107.998869 4.96240657"></polygon>
                    <polyline id="Fill-2" fill="#212121" points="0.725927193 13.7450631 14.4527122 13.7450631 5.9473839 26.8835884 14.4527122 26.8835884 14.4527122 29.8586187 0.390245174 29.8586187 8.90506275 16.7153258 0.725927193 16.7153258 0.725927193 13.7450631"></polyline>
                    <path d="M30.7457448,22.1016086 L19.5330164,22.1016086 C19.6083373,23.6362045 20.1195703,24.8489823 21.0667155,25.7500732 C22.0049646,26.6547399 23.2261117,27.1046894 24.7177023,27.1046894 C26.7988122,27.1046894 28.7150465,26.4640328 30.4788598,25.1815278 L30.4788598,28.2685985 C29.504433,28.9175985 28.5400886,29.3800631 27.5846403,29.6601641 C26.6202958,29.9349015 25.5118334,30.0731641 24.219517,30.0731641 C22.4681583,30.0731641 21.0370617,29.7042652 19.9535086,28.9718308 C18.8604662,28.2328409 17.9963519,27.2477197 17.3368494,26.0057399 C16.6862431,24.7619722 16.3505611,23.3263056 16.3505611,21.6927803 C16.3505611,19.2445783 17.0432759,17.2504975 18.4263333,15.7182854 C19.7999014,14.1795177 21.588624,13.4137096 23.7841979,13.4137096 C25.8979271,13.4137096 27.5929434,14.1693864 28.8556059,15.6712045 C30.1182685,17.1670631 30.7457448,19.1772348 30.7457448,21.6963561 L30.7457448,22.1016086 L30.7457448,22.1016086 Z M19.583428,20.1790429 L27.6314934,20.1790429 C27.5431248,18.89475 27.1730443,17.9054571 26.4993079,17.2058005 C25.8267577,16.5115076 24.9282449,16.1628712 23.7853841,16.1628712 C22.6520124,16.1628712 21.7244388,16.5115076 21.0020701,17.2058005 C20.2802944,17.9054571 19.8087976,18.89475 19.583428,20.1790429 L19.583428,20.1790429 Z" id="Fill-3" fill="#212121"></path>
                    <path d="M47.3851348,18.1605278 L47.3851348,29.8586187 L44.2192856,29.8586187 L44.2192856,20.8620126 C44.2192856,19.0741338 43.9802753,17.8238106 43.4969169,17.1223662 C43.0230478,16.4090025 42.1891804,16.0544066 40.9976872,16.0544066 C40.3358124,16.0544066 39.7207907,16.209952 39.1680422,16.5210429 C38.6111422,16.8273662 37.9818867,17.3798207 37.2678211,18.1605278 L37.2678211,29.8586187 L34.1007857,29.8586187 L34.1007857,13.7450631 L37.2678211,13.7450631 L37.2678211,15.8660833 C38.8851441,14.233154 40.4692549,13.4137096 42.0148155,13.4137096 C44.0555962,13.4137096 45.6308107,14.3916793 46.7457969,16.3458308 C48.4419994,14.3916793 50.2147088,13.4137096 52.0603668,13.4137096 C53.6106721,13.4137096 54.8881617,13.9858308 55.8934285,15.1318611 C56.8992884,16.2737197 57.4016253,18.0127298 57.4016253,20.3572348 L57.4016253,29.8586187 L54.2322176,29.8586187 L54.2322176,20.2785682 C54.2322176,18.9287197 53.9588088,17.9012854 53.4108049,17.184346 C52.8645803,16.4656187 52.0852761,16.1110227 51.06281,16.1110227 C49.7491428,16.1110227 48.5285887,16.7933965 47.3851348,18.1605278" id="Fill-4" fill="#212121"></path>
                    <path d="M69.3408739,13.6926187 C71.7807958,13.6926187 73.8037841,14.4858409 75.419328,16.0693056 C77.0295341,17.6605177 77.8307822,19.6599621 77.8307822,22.0610833 C77.8307822,24.3936692 77.0188587,26.3305379 75.3825572,27.8716894 C73.7450694,29.4176086 71.690648,30.1828207 69.2015006,30.1828207 C66.8060595,30.1828207 64.796712,29.4039015 63.1859128,27.8377197 C61.5757066,26.2739217 60.7673416,24.3120227 60.7673416,21.9710934 C60.7673416,19.6039419 61.5834166,17.6360833 63.2131944,16.0544066 C64.8388205,14.4798813 66.8896835,13.6926187 69.3408739,13.6926187 L69.3408739,13.6926187 Z M69.1771844,16.5538207 C67.6660223,16.5538207 66.4205589,17.0532348 65.4544353,18.0663662 C64.4800085,19.0771136 63.9907193,20.3721338 63.9907193,21.9341439 C63.9907193,23.4866187 64.4972077,24.7589924 65.4900199,25.7405379 C66.4769013,26.7232753 67.755577,27.214346 69.3177439,27.214346 C70.8692353,27.214346 72.1384217,26.7196995 73.1247101,25.7149116 C74.11515,24.7268106 74.610963,23.4538409 74.610963,21.9013662 C74.610963,20.3572348 74.0920199,19.0771136 73.0654023,18.0663662 C72.0358193,17.0532348 70.7381651,16.5538207 69.1771844,16.5538207 L69.1771844,16.5538207 Z" id="Fill-5" fill="#212121"></path>
                    <path d="M80.5488576,19.3268207 C80.5488576,17.6027096 81.1798924,16.2469015 82.4271349,15.2444975 C83.6850529,14.2462652 85.3871861,13.7450631 87.5513269,13.7450631 L94.1742264,13.7450631 L94.1742264,16.2182955 L90.9105194,16.2182955 C91.5415541,16.8649116 91.9792455,17.4465682 92.2158836,17.9769722 C92.4626039,18.4996288 92.5877433,19.1086995 92.5877433,19.7892854 C92.5877433,20.6289924 92.3469538,21.4645278 91.8707123,22.2732449 C91.387947,23.0879217 90.7818215,23.7160631 90.0256474,24.145154 C89.2730317,24.5766288 88.0483261,24.9264571 86.3355175,25.1815278 C85.1428381,25.3585278 84.5438295,25.7727197 84.5438295,26.4252955 C84.5438295,26.7965783 84.7727575,27.1046894 85.211042,27.346649 C85.6641534,27.5886086 86.4642153,27.8377197 87.6444401,28.0910025 C89.6010037,28.5194975 90.8654455,28.8621742 91.4353932,29.1065177 C91.998224,29.3538409 92.5064917,29.7042652 92.9655339,30.1530227 C93.728825,30.9277702 94.1172909,31.8997803 94.1172909,33.0750126 C94.1172909,34.5994773 93.4405892,35.8235783 92.0877788,36.7324167 C90.7349684,37.6484066 88.9219296,38.0971641 86.6593379,38.0971641 C84.3676854,38.0971641 82.549902,37.642447 81.1798924,36.7258611 C79.8134412,35.8039116 79.1302156,34.5780227 79.1302156,33.0350833 C79.1302156,30.8491035 80.4658267,29.4426389 83.1400144,28.8097298 C82.069509,28.1237803 81.5345529,27.434851 81.5345529,26.7590328 C81.5345529,26.2482955 81.764074,25.7739116 82.2225231,25.3585278 C82.6803791,24.9371843 83.2983662,24.6284773 84.074705,24.4276389 C81.726117,23.3745783 80.5488576,21.6749015 80.5488576,19.3268207 L80.5488576,19.3268207 Z M85.7715005,30.6369419 C84.7051467,30.6369419 83.8374739,30.8598308 83.1566206,31.3181237 C82.4828842,31.7680732 82.1353407,32.361649 82.1353407,33.0762045 C82.1353407,34.7377399 83.6204074,35.5738712 86.5857963,35.5738712 C87.9902044,35.5738712 89.0731645,35.3629015 89.8489102,34.9499015 C90.6151667,34.529154 90.998888,33.9409419 90.998888,33.1781136 C90.998888,32.4272045 90.5119711,31.8175379 89.5440682,31.344346 C88.5678622,30.8699621 87.308165,30.6369419 85.7715005,30.6369419 L85.7715005,30.6369419 Z M86.5057308,16.4960126 C85.6410234,16.4960126 84.9073862,16.7933965 84.3024469,17.3720732 C83.6992868,17.9632652 83.3985963,18.6670934 83.3985963,19.4901136 C83.3985963,20.3238611 83.6945421,21.0151742 84.2852476,21.5592854 C84.88307,22.1039924 85.6256034,22.3781338 86.5484324,22.3781338 C87.4416075,22.3781338 88.185327,22.0980328 88.787301,21.5425985 C89.3892749,20.9800126 89.6881861,20.2863157 89.6881861,19.4561439 C89.6881861,18.6080934 89.3845303,17.9054571 88.7754394,17.3392955 C88.1705001,16.7755177 87.4172913,16.4960126 86.5057308,16.4960126 L86.5057308,16.4960126 Z" id="Fill-6" fill="#212121"></path>
                </g>
            </g>
        </g>
    </g>
</svg>